<?xml version="1.0" encoding="UTF-8" standalone="no"?>
<svg
   xmlns:dc="http://purl.org/dc/elements/1.1/"
   xmlns:cc="http://creativecommons.org/ns#"
   xmlns:rdf="http://www.w3.org/1999/02/22-rdf-syntax-ns#"
   xmlns:svg="http://www.w3.org/2000/svg"
   xmlns="http://www.w3.org/2000/svg"
   xmlns:xlink="http://www.w3.org/1999/xlink"
   xmlns:sodipodi="http://sodipodi.sourceforge.net/DTD/sodipodi-0.dtd"
   xmlns:inkscape="http://www.inkscape.org/namespaces/inkscape"
   width="150"
   height="150"
   viewBox="0 0 150 150"
   id="svg2"
   version="1.1"
   inkscape:version="0.91 r13725"
   sodipodi:docname="blob5.svg"
   style="fill:none">
  <metadata
     id="metadata188">
    <rdf:RDF>
      <cc:Work
         rdf:about="">
        <dc:format>image/svg+xml</dc:format>
        <dc:type
           rdf:resource="http://purl.org/dc/dcmitype/StillImage" />
        <dc:title></dc:title>
      </cc:Work>
    </rdf:RDF>
  </metadata>
  <defs
     id="defs186">
    <linearGradient
       inkscape:collect="always"
       id="linearGradient4528">
      <stop
         style="stop-color:#e7ba03;stop-opacity:0"
         offset="0"
         id="stop4530" />
      <stop
         id="stop4536"
         offset="0.30000001"
         style="stop-color:#e7ba03;stop-opacity:0.33474576" />
      <stop
         style="stop-color:#e7ba03;stop-opacity:0;"
         offset="1"
         id="stop4532" />
    </linearGradient>
    <linearGradient
       inkscape:collect="always"
       xlink:href="#linearGradient4528"
       id="linearGradient4534"
       x1="20"
       y1="140"
       x2="155"
       y2="5"
       gradientUnits="userSpaceOnUse" />
  </defs>
  <sodipodi:namedview
     pagecolor="#ffffff"
     bordercolor="#666666"
     borderopacity="1"
     objecttolerance="10"
     gridtolerance="10"
     guidetolerance="10"
     inkscape:pageopacity="0"
     inkscape:pageshadow="2"
     inkscape:window-width="1536"
     inkscape:window-height="841"
     id="namedview184"
     showgrid="true"
     inkscape:snap-bbox="true"
     inkscape:bbox-paths="true"
     inkscape:bbox-nodes="true"
     inkscape:snap-bbox-edge-midpoints="true"
     inkscape:snap-bbox-midpoints="true"
     inkscape:zoom="1.9517801"
     inkscape:cx="4.0961084"
     inkscape:cy="52.954607"
     inkscape:window-x="-8"
     inkscape:window-y="-8"
     inkscape:window-maximized="1"
     inkscape:current-layer="svg2">
    <inkscape:grid
       type="xygrid"
       id="grid4103" />
  </sodipodi:namedview>
  <path
     style="opacity:1;fill:url(#linearGradient4534);fill-opacity:1;fill-rule:evenodd;stroke:none;stroke-width:0.1;stroke-linecap:round;stroke-linejoin:round;stroke-miterlimit:4;stroke-dasharray:none;stroke-opacity:1"
     d="M 117.5 0 A 2.5 2.5 0 0 0 115 2.5 A 2.5 2.5 0 0 0 117.5 5 A 2.5 2.5 0 0 0 120 2.5 A 2.5 2.5 0 0 0 117.5 0 z M 127.5 0 A 2.5 2.5 0 0 0 125 2.5 A 2.5 2.5 0 0 0 127.5 5 A 2.5 2.5 0 0 0 130 2.5 A 2.5 2.5 0 0 0 127.5 0 z M 137.5 0 A 2.5 2.5 0 0 0 135 2.5 A 2.5 2.5 0 0 0 137.5 5 A 2.5 2.5 0 0 0 140 2.5 A 2.5 2.5 0 0 0 137.5 0 z M 147.5 0 A 2.5 2.5 0 0 0 145 2.5 A 2.5 2.5 0 0 0 147.5 5 A 2.5 2.5 0 0 0 150 2.5 A 2.5 2.5 0 0 0 147.5 0 z M 107.5 10 A 2.5 2.5 0 0 0 105 12.5 A 2.5 2.5 0 0 0 107.5 15 A 2.5 2.5 0 0 0 110 12.5 A 2.5 2.5 0 0 0 107.5 10 z M 117.5 10 A 2.5 2.5 0 0 0 115 12.5 A 2.5 2.5 0 0 0 117.5 15 A 2.5 2.5 0 0 0 120 12.5 A 2.5 2.5 0 0 0 117.5 10 z M 127.5 10 A 2.5 2.5 0 0 0 125 12.5 A 2.5 2.5 0 0 0 127.5 15 A 2.5 2.5 0 0 0 130 12.5 A 2.5 2.5 0 0 0 127.5 10 z M 137.5 10 A 2.5 2.5 0 0 0 135 12.5 A 2.5 2.5 0 0 0 137.5 15 A 2.5 2.5 0 0 0 140 12.5 A 2.5 2.5 0 0 0 137.5 10 z M 147.5 10 A 2.5 2.5 0 0 0 145 12.5 A 2.5 2.5 0 0 0 147.5 15 A 2.5 2.5 0 0 0 150 12.5 A 2.5 2.5 0 0 0 147.5 10 z M 97.5 20 A 2.5 2.5 0 0 0 95 22.5 A 2.5 2.5 0 0 0 97.5 25 A 2.5 2.5 0 0 0 100 22.5 A 2.5 2.5 0 0 0 97.5 20 z M 107.5 20 A 2.5 2.5 0 0 0 105 22.5 A 2.5 2.5 0 0 0 107.5 25 A 2.5 2.5 0 0 0 110 22.5 A 2.5 2.5 0 0 0 107.5 20 z M 117.5 20 A 2.5 2.5 0 0 0 115 22.5 A 2.5 2.5 0 0 0 117.5 25 A 2.5 2.5 0 0 0 120 22.5 A 2.5 2.5 0 0 0 117.5 20 z M 127.5 20 A 2.5 2.5 0 0 0 125 22.5 A 2.5 2.5 0 0 0 127.5 25 A 2.5 2.5 0 0 0 130 22.5 A 2.5 2.5 0 0 0 127.5 20 z M 137.5 20 A 2.5 2.5 0 0 0 135 22.5 A 2.5 2.5 0 0 0 137.5 25 A 2.5 2.5 0 0 0 140 22.5 A 2.5 2.5 0 0 0 137.5 20 z M 147.5 20 A 2.5 2.5 0 0 0 145 22.5 A 2.5 2.5 0 0 0 147.5 25 A 2.5 2.5 0 0 0 150 22.5 A 2.5 2.5 0 0 0 147.5 20 z M 87.5 30 A 2.5 2.5 0 0 0 85 32.5 A 2.5 2.5 0 0 0 87.5 35 A 2.5 2.5 0 0 0 90 32.5 A 2.5 2.5 0 0 0 87.5 30 z M 97.5 30 A 2.5 2.5 0 0 0 95 32.5 A 2.5 2.5 0 0 0 97.5 35 A 2.5 2.5 0 0 0 100 32.5 A 2.5 2.5 0 0 0 97.5 30 z M 107.5 30 A 2.5 2.5 0 0 0 105 32.5 A 2.5 2.5 0 0 0 107.5 35 A 2.5 2.5 0 0 0 110 32.5 A 2.5 2.5 0 0 0 107.5 30 z M 117.5 30 A 2.5 2.5 0 0 0 115 32.5 A 2.5 2.5 0 0 0 117.5 35 A 2.5 2.5 0 0 0 120 32.5 A 2.5 2.5 0 0 0 117.5 30 z M 127.5 30 A 2.5 2.5 0 0 0 125 32.5 A 2.5 2.5 0 0 0 127.5 35 A 2.5 2.5 0 0 0 130 32.5 A 2.5 2.5 0 0 0 127.5 30 z M 137.5 30 A 2.5 2.5 0 0 0 135 32.5 A 2.5 2.5 0 0 0 137.5 35 A 2.5 2.5 0 0 0 140 32.5 A 2.5 2.5 0 0 0 137.5 30 z M 147.5 30 A 2.5 2.5 0 0 0 145 32.5 A 2.5 2.5 0 0 0 147.5 35 A 2.5 2.5 0 0 0 150 32.5 A 2.5 2.5 0 0 0 147.5 30 z M 77.5 40 A 2.5 2.5 0 0 0 75 42.5 A 2.5 2.5 0 0 0 77.5 45 A 2.5 2.5 0 0 0 80 42.5 A 2.5 2.5 0 0 0 77.5 40 z M 87.5 40 A 2.5 2.5 0 0 0 85 42.5 A 2.5 2.5 0 0 0 87.5 45 A 2.5 2.5 0 0 0 90 42.5 A 2.5 2.5 0 0 0 87.5 40 z M 97.5 40 A 2.5 2.5 0 0 0 95 42.5 A 2.5 2.5 0 0 0 97.5 45 A 2.5 2.5 0 0 0 100 42.5 A 2.5 2.5 0 0 0 97.5 40 z M 107.5 40 A 2.5 2.5 0 0 0 105 42.5 A 2.5 2.5 0 0 0 107.5 45 A 2.5 2.5 0 0 0 110 42.5 A 2.5 2.5 0 0 0 107.5 40 z M 117.5 40 A 2.5 2.5 0 0 0 115 42.5 A 2.5 2.5 0 0 0 117.5 45 A 2.5 2.5 0 0 0 120 42.5 A 2.5 2.5 0 0 0 117.5 40 z M 127.5 40 A 2.5 2.5 0 0 0 125 42.5 A 2.5 2.5 0 0 0 127.5 45 A 2.5 2.5 0 0 0 130 42.5 A 2.5 2.5 0 0 0 127.5 40 z M 137.5 40 A 2.5 2.5 0 0 0 135 42.5 A 2.5 2.5 0 0 0 137.5 45 A 2.5 2.5 0 0 0 140 42.5 A 2.5 2.5 0 0 0 137.5 40 z M 147.5 40 A 2.5 2.5 0 0 0 145 42.5 A 2.5 2.5 0 0 0 147.5 45 A 2.5 2.5 0 0 0 150 42.5 A 2.5 2.5 0 0 0 147.5 40 z M 67.5 50 A 2.5 2.5 0 0 0 65 52.5 A 2.5 2.5 0 0 0 67.5 55 A 2.5 2.5 0 0 0 70 52.5 A 2.5 2.5 0 0 0 67.5 50 z M 77.5 50 A 2.5 2.5 0 0 0 75 52.5 A 2.5 2.5 0 0 0 77.5 55 A 2.5 2.5 0 0 0 80 52.5 A 2.5 2.5 0 0 0 77.5 50 z M 87.5 50 A 2.5 2.5 0 0 0 85 52.5 A 2.5 2.5 0 0 0 87.5 55 A 2.5 2.5 0 0 0 90 52.5 A 2.5 2.5 0 0 0 87.5 50 z M 97.5 50 A 2.5 2.5 0 0 0 95 52.5 A 2.5 2.5 0 0 0 97.5 55 A 2.5 2.5 0 0 0 100 52.5 A 2.5 2.5 0 0 0 97.5 50 z M 107.5 50 A 2.5 2.5 0 0 0 105 52.5 A 2.5 2.5 0 0 0 107.5 55 A 2.5 2.5 0 0 0 110 52.5 A 2.5 2.5 0 0 0 107.5 50 z M 117.5 50 A 2.5 2.5 0 0 0 115 52.5 A 2.5 2.5 0 0 0 117.5 55 A 2.5 2.5 0 0 0 120 52.5 A 2.5 2.5 0 0 0 117.5 50 z M 127.5 50 A 2.5 2.5 0 0 0 125 52.5 A 2.5 2.5 0 0 0 127.5 55 A 2.5 2.5 0 0 0 130 52.5 A 2.5 2.5 0 0 0 127.5 50 z M 137.5 50 A 2.5 2.5 0 0 0 135 52.5 A 2.5 2.5 0 0 0 137.5 55 A 2.5 2.5 0 0 0 140 52.5 A 2.5 2.5 0 0 0 137.5 50 z M 57.5 60 A 2.5 2.5 0 0 0 55 62.5 A 2.5 2.5 0 0 0 57.5 65 A 2.5 2.5 0 0 0 60 62.5 A 2.5 2.5 0 0 0 57.5 60 z M 67.5 60 A 2.5 2.5 0 0 0 65 62.5 A 2.5 2.5 0 0 0 67.5 65 A 2.5 2.5 0 0 0 70 62.5 A 2.5 2.5 0 0 0 67.5 60 z M 77.5 60 A 2.5 2.5 0 0 0 75 62.5 A 2.5 2.5 0 0 0 77.5 65 A 2.5 2.5 0 0 0 80 62.5 A 2.5 2.5 0 0 0 77.5 60 z M 87.5 60 A 2.5 2.5 0 0 0 85 62.5 A 2.5 2.5 0 0 0 87.5 65 A 2.5 2.5 0 0 0 90 62.5 A 2.5 2.5 0 0 0 87.5 60 z M 97.5 60 A 2.5 2.5 0 0 0 95 62.5 A 2.5 2.5 0 0 0 97.5 65 A 2.5 2.5 0 0 0 100 62.5 A 2.5 2.5 0 0 0 97.5 60 z M 107.5 60 A 2.5 2.5 0 0 0 105 62.5 A 2.5 2.5 0 0 0 107.5 65 A 2.5 2.5 0 0 0 110 62.5 A 2.5 2.5 0 0 0 107.5 60 z M 117.5 60 A 2.5 2.5 0 0 0 115 62.5 A 2.5 2.5 0 0 0 117.5 65 A 2.5 2.5 0 0 0 120 62.5 A 2.5 2.5 0 0 0 117.5 60 z M 127.5 60 A 2.5 2.5 0 0 0 125 62.5 A 2.5 2.5 0 0 0 127.5 65 A 2.5 2.5 0 0 0 130 62.5 A 2.5 2.5 0 0 0 127.5 60 z M 47.5 70 A 2.5 2.5 0 0 0 45 72.5 A 2.5 2.5 0 0 0 47.5 75 A 2.5 2.5 0 0 0 50 72.5 A 2.5 2.5 0 0 0 47.5 70 z M 57.5 70 A 2.5 2.5 0 0 0 55 72.5 A 2.5 2.5 0 0 0 57.5 75 A 2.5 2.5 0 0 0 60 72.5 A 2.5 2.5 0 0 0 57.5 70 z M 67.5 70 A 2.5 2.5 0 0 0 65 72.5 A 2.5 2.5 0 0 0 67.5 75 A 2.5 2.5 0 0 0 70 72.5 A 2.5 2.5 0 0 0 67.5 70 z M 77.5 70 A 2.5 2.5 0 0 0 75 72.5 A 2.5 2.5 0 0 0 77.5 75 A 2.5 2.5 0 0 0 80 72.5 A 2.5 2.5 0 0 0 77.5 70 z M 87.5 70 A 2.5 2.5 0 0 0 85 72.5 A 2.5 2.5 0 0 0 87.5 75 A 2.5 2.5 0 0 0 90 72.5 A 2.5 2.5 0 0 0 87.5 70 z M 97.5 70 A 2.5 2.5 0 0 0 95 72.5 A 2.5 2.5 0 0 0 97.5 75 A 2.5 2.5 0 0 0 100 72.5 A 2.5 2.5 0 0 0 97.5 70 z M 107.5 70 A 2.5 2.5 0 0 0 105 72.5 A 2.5 2.5 0 0 0 107.5 75 A 2.5 2.5 0 0 0 110 72.5 A 2.5 2.5 0 0 0 107.5 70 z M 117.5 70 A 2.5 2.5 0 0 0 115 72.5 A 2.5 2.5 0 0 0 117.5 75 A 2.5 2.5 0 0 0 120 72.5 A 2.5 2.5 0 0 0 117.5 70 z M 37.5 80 A 2.5 2.5 0 0 0 35 82.5 A 2.5 2.5 0 0 0 37.5 85 A 2.5 2.5 0 0 0 40 82.5 A 2.5 2.5 0 0 0 37.5 80 z M 47.5 80 A 2.5 2.5 0 0 0 45 82.5 A 2.5 2.5 0 0 0 47.5 85 A 2.5 2.5 0 0 0 50 82.5 A 2.5 2.5 0 0 0 47.5 80 z M 57.5 80 A 2.5 2.5 0 0 0 55 82.5 A 2.5 2.5 0 0 0 57.5 85 A 2.5 2.5 0 0 0 60 82.5 A 2.5 2.5 0 0 0 57.5 80 z M 67.5 80 A 2.5 2.5 0 0 0 65 82.5 A 2.5 2.5 0 0 0 67.5 85 A 2.5 2.5 0 0 0 70 82.5 A 2.5 2.5 0 0 0 67.5 80 z M 77.5 80 A 2.5 2.5 0 0 0 75 82.5 A 2.5 2.5 0 0 0 77.5 85 A 2.5 2.5 0 0 0 80 82.5 A 2.5 2.5 0 0 0 77.5 80 z M 87.5 80 A 2.5 2.5 0 0 0 85 82.5 A 2.5 2.5 0 0 0 87.5 85 A 2.5 2.5 0 0 0 90 82.5 A 2.5 2.5 0 0 0 87.5 80 z M 97.5 80 A 2.5 2.5 0 0 0 95 82.5 A 2.5 2.5 0 0 0 97.5 85 A 2.5 2.5 0 0 0 100 82.5 A 2.5 2.5 0 0 0 97.5 80 z M 107.5 80 A 2.5 2.5 0 0 0 105 82.5 A 2.5 2.5 0 0 0 107.5 85 A 2.5 2.5 0 0 0 110 82.5 A 2.5 2.5 0 0 0 107.5 80 z M 27.5 90 A 2.5 2.5 0 0 0 25 92.5 A 2.5 2.5 0 0 0 27.5 95 A 2.5 2.5 0 0 0 30 92.5 A 2.5 2.5 0 0 0 27.5 90 z M 37.5 90 A 2.5 2.5 0 0 0 35 92.5 A 2.5 2.5 0 0 0 37.5 95 A 2.5 2.5 0 0 0 40 92.5 A 2.5 2.5 0 0 0 37.5 90 z M 47.5 90 A 2.5 2.5 0 0 0 45 92.5 A 2.5 2.5 0 0 0 47.5 95 A 2.5 2.5 0 0 0 50 92.5 A 2.5 2.5 0 0 0 47.5 90 z M 57.5 90 A 2.5 2.5 0 0 0 55 92.5 A 2.5 2.5 0 0 0 57.5 95 A 2.5 2.5 0 0 0 60 92.5 A 2.5 2.5 0 0 0 57.5 90 z M 67.5 90 A 2.5 2.5 0 0 0 65 92.5 A 2.5 2.5 0 0 0 67.5 95 A 2.5 2.5 0 0 0 70 92.5 A 2.5 2.5 0 0 0 67.5 90 z M 77.5 90 A 2.5 2.5 0 0 0 75 92.5 A 2.5 2.5 0 0 0 77.5 95 A 2.5 2.5 0 0 0 80 92.5 A 2.5 2.5 0 0 0 77.5 90 z M 87.5 90 A 2.5 2.5 0 0 0 85 92.5 A 2.5 2.5 0 0 0 87.5 95 A 2.5 2.5 0 0 0 90 92.5 A 2.5 2.5 0 0 0 87.5 90 z M 97.5 90 A 2.5 2.5 0 0 0 95 92.5 A 2.5 2.5 0 0 0 97.5 95 A 2.5 2.5 0 0 0 100 92.5 A 2.5 2.5 0 0 0 97.5 90 z M 17.5 100 A 2.5 2.5 0 0 0 15 102.5 A 2.5 2.5 0 0 0 17.5 105 A 2.5 2.5 0 0 0 20 102.5 A 2.5 2.5 0 0 0 17.5 100 z M 27.5 100 A 2.5 2.5 0 0 0 25 102.5 A 2.5 2.5 0 0 0 27.5 105 A 2.5 2.5 0 0 0 30 102.5 A 2.5 2.5 0 0 0 27.5 100 z M 37.5 100 A 2.5 2.5 0 0 0 35 102.5 A 2.5 2.5 0 0 0 37.5 105 A 2.5 2.5 0 0 0 40 102.5 A 2.5 2.5 0 0 0 37.5 100 z M 47.5 100 A 2.5 2.5 0 0 0 45 102.5 A 2.5 2.5 0 0 0 47.5 105 A 2.5 2.5 0 0 0 50 102.5 A 2.5 2.5 0 0 0 47.5 100 z M 57.5 100 A 2.5 2.5 0 0 0 55 102.5 A 2.5 2.5 0 0 0 57.5 105 A 2.5 2.5 0 0 0 60 102.5 A 2.5 2.5 0 0 0 57.5 100 z M 67.5 100 A 2.5 2.5 0 0 0 65 102.5 A 2.5 2.5 0 0 0 67.5 105 A 2.5 2.5 0 0 0 70 102.5 A 2.5 2.5 0 0 0 67.5 100 z M 77.5 100 A 2.5 2.5 0 0 0 75 102.5 A 2.5 2.5 0 0 0 77.5 105 A 2.5 2.5 0 0 0 80 102.5 A 2.5 2.5 0 0 0 77.5 100 z M 87.5 100 A 2.5 2.5 0 0 0 85 102.5 A 2.5 2.5 0 0 0 87.5 105 A 2.5 2.5 0 0 0 90 102.5 A 2.5 2.5 0 0 0 87.5 100 z M 7.5 110 A 2.5 2.5 0 0 0 5 112.5 A 2.5 2.5 0 0 0 7.5 115 A 2.5 2.5 0 0 0 10 112.5 A 2.5 2.5 0 0 0 7.5 110 z M 17.5 110 A 2.5 2.5 0 0 0 15 112.5 A 2.5 2.5 0 0 0 17.5 115 A 2.5 2.5 0 0 0 20 112.5 A 2.5 2.5 0 0 0 17.5 110 z M 27.5 110 A 2.5 2.5 0 0 0 25 112.5 A 2.5 2.5 0 0 0 27.5 115 A 2.5 2.5 0 0 0 30 112.5 A 2.5 2.5 0 0 0 27.5 110 z M 37.5 110 A 2.5 2.5 0 0 0 35 112.5 A 2.5 2.5 0 0 0 37.5 115 A 2.5 2.5 0 0 0 40 112.5 A 2.5 2.5 0 0 0 37.5 110 z M 47.5 110 A 2.5 2.5 0 0 0 45 112.5 A 2.5 2.5 0 0 0 47.5 115 A 2.5 2.5 0 0 0 50 112.5 A 2.5 2.5 0 0 0 47.5 110 z M 57.5 110 A 2.5 2.5 0 0 0 55 112.5 A 2.5 2.5 0 0 0 57.5 115 A 2.5 2.5 0 0 0 60 112.5 A 2.5 2.5 0 0 0 57.5 110 z M 67.5 110 A 2.5 2.5 0 0 0 65 112.5 A 2.5 2.5 0 0 0 67.5 115 A 2.5 2.5 0 0 0 70 112.5 A 2.5 2.5 0 0 0 67.5 110 z M 77.5 110 A 2.5 2.5 0 0 0 75 112.5 A 2.5 2.5 0 0 0 77.5 115 A 2.5 2.5 0 0 0 80 112.5 A 2.5 2.5 0 0 0 77.5 110 z M 7.5 120 A 2.5 2.5 0 0 0 5 122.5 A 2.5 2.5 0 0 0 7.5 125 A 2.5 2.5 0 0 0 10 122.5 A 2.5 2.5 0 0 0 7.5 120 z M 17.5 120 A 2.5 2.5 0 0 0 15 122.5 A 2.5 2.5 0 0 0 17.5 125 A 2.5 2.5 0 0 0 20 122.5 A 2.5 2.5 0 0 0 17.5 120 z M 27.5 120 A 2.5 2.5 0 0 0 25 122.5 A 2.5 2.5 0 0 0 27.5 125 A 2.5 2.5 0 0 0 30 122.5 A 2.5 2.5 0 0 0 27.5 120 z M 37.5 120 A 2.5 2.5 0 0 0 35 122.5 A 2.5 2.5 0 0 0 37.5 125 A 2.5 2.5 0 0 0 40 122.5 A 2.5 2.5 0 0 0 37.5 120 z M 47.5 120 A 2.5 2.5 0 0 0 45 122.5 A 2.5 2.5 0 0 0 47.5 125 A 2.5 2.5 0 0 0 50 122.5 A 2.5 2.5 0 0 0 47.5 120 z M 57.5 120 A 2.5 2.5 0 0 0 55 122.5 A 2.5 2.5 0 0 0 57.5 125 A 2.5 2.5 0 0 0 60 122.5 A 2.5 2.5 0 0 0 57.5 120 z M 67.5 120 A 2.5 2.5 0 0 0 65 122.5 A 2.5 2.5 0 0 0 67.5 125 A 2.5 2.5 0 0 0 70 122.5 A 2.5 2.5 0 0 0 67.5 120 z M 7.5 130 A 2.5 2.5 0 0 0 5 132.5 A 2.5 2.5 0 0 0 7.5 135 A 2.5 2.5 0 0 0 10 132.5 A 2.5 2.5 0 0 0 7.5 130 z M 17.5 130 A 2.5 2.5 0 0 0 15 132.5 A 2.5 2.5 0 0 0 17.5 135 A 2.5 2.5 0 0 0 20 132.5 A 2.5 2.5 0 0 0 17.5 130 z M 27.5 130 A 2.5 2.5 0 0 0 25 132.5 A 2.5 2.5 0 0 0 27.5 135 A 2.5 2.5 0 0 0 30 132.5 A 2.5 2.5 0 0 0 27.5 130 z M 37.5 130 A 2.5 2.5 0 0 0 35 132.5 A 2.5 2.5 0 0 0 37.5 135 A 2.5 2.5 0 0 0 40 132.5 A 2.5 2.5 0 0 0 37.5 130 z M 47.5 130 A 2.5 2.5 0 0 0 45 132.5 A 2.5 2.5 0 0 0 47.5 135 A 2.5 2.5 0 0 0 50 132.5 A 2.5 2.5 0 0 0 47.5 130 z M 57.5 130 A 2.5 2.5 0 0 0 55 132.5 A 2.5 2.5 0 0 0 57.5 135 A 2.5 2.5 0 0 0 60 132.5 A 2.5 2.5 0 0 0 57.5 130 z M 7.5 140 A 2.5 2.5 0 0 0 5 142.5 A 2.5 2.5 0 0 0 7.5 145 A 2.5 2.5 0 0 0 10 142.5 A 2.5 2.5 0 0 0 7.5 140 z M 17.5 140 A 2.5 2.5 0 0 0 15 142.5 A 2.5 2.5 0 0 0 17.5 145 A 2.5 2.5 0 0 0 20 142.5 A 2.5 2.5 0 0 0 17.5 140 z M 27.5 140 A 2.5 2.5 0 0 0 25 142.5 A 2.5 2.5 0 0 0 27.5 145 A 2.5 2.5 0 0 0 30 142.5 A 2.5 2.5 0 0 0 27.5 140 z M 37.5 140 A 2.5 2.5 0 0 0 35 142.5 A 2.5 2.5 0 0 0 37.5 145 A 2.5 2.5 0 0 0 40 142.5 A 2.5 2.5 0 0 0 37.5 140 z M 47.5 140 A 2.5 2.5 0 0 0 45 142.5 A 2.5 2.5 0 0 0 47.5 145 A 2.5 2.5 0 0 0 50 142.5 A 2.5 2.5 0 0 0 47.5 140 z "
     id="path4105" />
</svg>
